<?xml version="1.0" standalone="no"?><!DOCTYPE svg PUBLIC "-//W3C//DTD SVG 1.1//EN" "http://www.w3.org/Graphics/SVG/1.1/DTD/svg11.dtd"><svg t="1652116289330" class="icon" viewBox="0 0 1024 1024" version="1.1" xmlns="http://www.w3.org/2000/svg" p-id="30913" width="32" height="32" xmlns:xlink="http://www.w3.org/1999/xlink"><defs><style type="text/css">@font-face { font-family: feedback-iconfont; src: url("//at.alicdn.com/t/font_1031158_u69w8yhxdu.woff2?t=1630033759944") format("woff2"), url("//at.alicdn.com/t/font_1031158_u69w8yhxdu.woff?t=1630033759944") format("woff"), url("//at.alicdn.com/t/font_1031158_u69w8yhxdu.ttf?t=1630033759944") format("truetype"); }
</style></defs><path d="M725.333333 256h-85.333333V213.333333h106.666667a21.333333 21.333333 0 0 1 21.333333 21.333334V341.333333h-42.666667V256z m0 384h42.666667v106.666667a21.333333 21.333333 0 0 1-21.333333 21.333333H640v-42.666667h85.333333v-85.333333z m-384 85.333333v42.666667H234.666667a21.333333 21.333333 0 0 1-21.333334-21.333333V640h42.666667v85.333333h85.333333zM256 256v85.333333H213.333333V234.666667a21.333333 21.333333 0 0 1 21.333334-21.333334h109.354666v42.666667H256z m170.666667-42.666667h128v42.666667h-128V213.333333z m0 512h128v42.666667h-128v-42.666667z m-213.333334-298.666666h42.666667v128H213.333333v-128z m512 0h42.666667v128h-42.666667v-128z" fill="#000000" fill-opacity=".7" p-id="30914" data-spm-anchor-id="a313x.7781069.0.i5" class="selected"></path></svg>